# xmcd CD database file
#
# Track frame offsets:
#	150
#	23778
#	43305
#	68573
#	95071
#	115275
#	135584
#	158648
#	189868
#	211412
#	231260
#	249840
#	269332
#	288180
#	311649
#
# Disc length: 4595 seconds
#
# Revision: 0
# Processed by: cddbd v1.5.1PL2 Copyright (c) Steve Scherf et al.
# Submitted via: CDex 1.51
#
DISCID=cf11f10f
DTITLE=Curtis Stigers - The Collection
DYEAR=2006
DGENRE=Jazz
TTITLE0=That's All Right
TTITLE1=I Keep Going Back To Joe's
TTITLE2=I Feel Fine
TTITLE3=Swingin' Down At 10th and Main
TTITLE4=Baby Plays Around
TTITLE5=Fools In Love
TTITLE6=Crazy
TTITLE7=My Foolish Heart
TTITLE8=My Babe
TTITLE9=I Think It's Going To Rain Today
TTITLE10=You Inspire Me
TTITLE11=Columbus Avenue
TTITLE12=How Could A Man Take Such A Fall
TTITLE13=Lullaby On The Hudson
TTITLE14=Don't Think Twice, It's Alright
EXTD=YEAR: 2006
EXTT0=
EXTT1=
EXTT2=
EXTT3=
EXTT4=
EXTT5=
EXTT6=
EXTT7=
EXTT8=
EXTT9=
EXTT10=
EXTT11=
EXTT12=
EXTT13=
EXTT14=
PLAYORDER=
